<svg width="9" height="18" viewBox="0 0 9 18" fill="none" xmlns="http://www.w3.org/2000/svg">
<path fill-rule="evenodd" clip-rule="evenodd" d="M2.05708 13.136C2.05708 11.8366 2.05244 10.5328 2.06172 9.23339C2.06172 9.01534 1.9968 8.94414 1.76958 8.95304C1.34762 8.97084 0.925653 8.95304 0.499048 8.96194C0.327479 8.96639 0.262561 8.92189 0.267198 8.74835C0.276472 7.93846 0.276472 7.12412 0.267198 6.31423C0.267198 6.15848 0.313564 6.10508 0.480496 6.10953C0.911738 6.11843 1.34762 6.09618 1.77886 6.11843C2.02926 6.13178 2.08026 6.04278 2.07563 5.82029C2.06172 5.20175 2.06172 4.5832 2.07563 3.96466C2.09417 3.20817 2.30284 2.50508 2.77118 1.89099C3.36471 1.11225 4.20401 0.760708 5.17778 0.716208C6.17474 0.671709 7.17633 0.698408 8.17792 0.685059C8.31703 0.685059 8.35876 0.729558 8.35876 0.863056C8.35413 1.68184 8.35413 2.50508 8.35876 3.32387C8.35876 3.47072 8.3124 3.51522 8.15938 3.51077C7.67713 3.50187 7.19952 3.50632 6.71727 3.50632C6.07736 3.50632 5.69249 3.82226 5.65539 4.43191C5.62293 4.91695 5.64612 5.41089 5.63685 5.89594C5.63221 6.06948 5.73886 6.05613 5.85942 6.05613C6.59207 6.05613 7.32007 6.06503 8.05272 6.05168C8.26602 6.04723 8.33558 6.09618 8.31239 6.31423C8.21965 7.12857 8.14082 7.94736 8.06663 8.76615C8.04808 8.94859 7.95998 8.98419 7.78842 8.98419C7.21343 8.97529 6.6338 8.97974 6.05881 8.97974C5.64612 8.98419 5.68321 8.92189 5.68321 9.32684C5.68321 11.8722 5.67858 14.4176 5.68785 16.9629C5.68785 17.2299 5.6183 17.2967 5.34008 17.2922C4.3524 17.2744 3.36007 17.2744 2.37239 17.2922C2.09417 17.2967 2.04781 17.2077 2.04781 16.9674C2.06172 15.6991 2.05708 14.4176 2.05708 13.136Z" fill="#818180"/>
</svg>
