<svg width="16" height="16" viewBox="0 0 16 16" fill="none" xmlns="http://www.w3.org/2000/svg">
<path d="M8.07063 1.76365C10.1897 1.76365 10.4401 1.77255 11.2748 1.80815C12.0492 1.84375 12.4665 1.96389 12.7447 2.07069C13.1157 2.20864 13.38 2.37329 13.6582 2.64029C13.9364 2.90728 14.108 3.16093 14.2517 3.51692C14.3584 3.78392 14.4882 4.18886 14.5253 4.92755C14.5624 5.72854 14.5717 5.96884 14.5717 8.00246C14.5717 10.0361 14.5624 10.2764 14.5253 11.0774C14.4882 11.8205 14.363 12.221 14.2517 12.488C14.108 12.844 13.9364 13.0976 13.6582 13.3646C13.38 13.6316 13.1157 13.7963 12.7447 13.9342C12.4665 14.0366 12.0445 14.1612 11.2748 14.1968C10.4401 14.2324 10.1897 14.2413 8.07063 14.2413C5.95152 14.2413 5.70112 14.2324 4.86646 14.1968C4.09209 14.1612 3.67475 14.041 3.39653 13.9342C3.02557 13.7963 2.76126 13.6316 2.48304 13.3646C2.20482 13.0976 2.03325 12.844 1.88951 12.488C1.78285 12.221 1.65302 11.8161 1.61592 11.0774C1.57883 10.2764 1.56955 10.0361 1.56955 8.00246C1.56955 5.96884 1.57883 5.72854 1.61592 4.92755C1.65302 4.18441 1.77822 3.78392 1.88951 3.51692C2.03325 3.16093 2.20482 2.90728 2.48304 2.64029C2.76126 2.37329 3.02557 2.20864 3.39653 2.07069C3.67475 1.96834 4.09672 1.84375 4.86646 1.80815C5.70576 1.77255 5.95616 1.76365 8.07063 1.76365ZM8.07063 0.393066C5.91907 0.393066 5.64547 0.401966 4.80154 0.437566C3.95761 0.473165 3.38262 0.602213 2.87719 0.789111C2.35784 0.984908 1.91269 1.243 1.47218 1.66575C1.03166 2.08849 0.75808 2.51124 0.558689 3.01408C0.363935 3.49912 0.229465 4.05092 0.192369 4.8608C0.155273 5.67069 0.145996 5.93324 0.145996 7.99801C0.145996 10.0628 0.155273 10.3253 0.192369 11.1352C0.229465 11.9451 0.363935 12.4969 0.558689 12.9819C0.762717 13.4803 1.03166 13.9075 1.47218 14.3303C1.91269 14.753 2.35321 15.0156 2.87719 15.2069C3.38262 15.3938 3.95761 15.5229 4.80154 15.5585C5.64547 15.5941 5.91907 15.603 8.07063 15.603C10.2222 15.603 10.4958 15.5941 11.3397 15.5585C12.1836 15.5229 12.7586 15.3938 13.2641 15.2069C13.7834 15.0111 14.2286 14.753 14.6691 14.3303C15.1096 13.9075 15.3832 13.4848 15.5826 12.9819C15.7773 12.4969 15.9118 11.9451 15.9489 11.1352C15.986 10.3253 15.9953 10.0628 15.9953 7.99801C15.9953 5.93324 15.986 5.67069 15.9489 4.8608C15.9118 4.05092 15.7773 3.49912 15.5826 3.01408C15.3785 2.51569 15.1096 2.08849 14.6691 1.66575C14.2286 1.243 13.788 0.980458 13.2641 0.789111C12.7586 0.602213 12.1836 0.473165 11.3397 0.437566C10.4958 0.401966 10.2268 0.393066 8.07063 0.393066Z" fill="#818180"/>
<path d="M8.07056 4.09546C5.82161 4.09546 3.99927 5.84429 3.99927 8.00251C3.99927 10.1607 5.82161 11.9096 8.07056 11.9096C10.3195 11.9096 12.1418 10.1607 12.1418 8.00251C12.1418 5.84429 10.3195 4.09546 8.07056 4.09546ZM8.07056 10.5345C6.6099 10.5345 5.42746 9.39979 5.42746 7.99806C5.42746 6.59632 6.6099 5.46159 8.07056 5.46159C9.53121 5.46159 10.7136 6.59632 10.7136 7.99806C10.7136 9.39979 9.53121 10.5345 8.07056 10.5345Z" fill="#818180"/>
<path d="M13.2547 3.93983C13.2547 4.44267 12.8281 4.85206 12.3041 4.85206C11.7801 4.85206 11.3535 4.44267 11.3535 3.93983C11.3535 3.43698 11.7801 3.02759 12.3041 3.02759C12.8281 3.02759 13.2547 3.43698 13.2547 3.93983Z" fill="#818180"/>
</svg>
