<svg width="17" height="16" viewBox="0 0 17 16" fill="none" xmlns="http://www.w3.org/2000/svg">
<path d="M4.25973 2.30626C4.25973 3.17844 3.58736 3.88154 2.4884 3.88154C1.44971 3.88154 0.781982 3.17399 0.781982 2.30626C0.781982 1.41627 1.47289 0.730979 2.53477 0.730979C3.592 0.726529 4.24118 1.41182 4.25973 2.30626ZM0.870086 15.2734V5.12752H4.15771V15.2734H0.870086Z" fill="#818180"/>
<path d="M6.11911 8.36244C6.11911 7.09866 6.07738 6.03957 6.03101 5.12734H8.88276L9.03578 6.53797H9.1007C9.53194 5.87493 10.5938 4.90039 12.3651 4.90039C14.526 4.90039 16.1489 6.28877 16.1489 9.27913V15.2732H12.8659V9.64848C12.8659 8.34019 12.3883 7.45021 11.2013 7.45021C10.2924 7.45021 9.75452 8.05095 9.51339 8.63389C9.42529 8.84304 9.40674 9.13228 9.40674 9.42153V15.2732H6.11911V8.36244Z" fill="#818180"/>
</svg>
