<svg width="17" height="14" viewBox="0 0 17 14" fill="none" xmlns="http://www.w3.org/2000/svg">
<path d="M5.92486 13.1078C11.837 13.1078 15.069 8.40868 15.069 4.33254C15.069 4.19904 15.069 4.06554 15.0597 3.93205C15.6904 3.49595 16.2329 2.95306 16.6641 2.33452C16.0799 2.58372 15.4539 2.74836 14.8186 2.81956C15.491 2.43242 15.9918 1.82723 16.2329 1.11524C15.6023 1.47568 14.9114 1.72933 14.1926 1.86283C12.9777 0.621293 10.9421 0.558993 9.64837 1.72933C8.81371 2.48137 8.4613 3.60275 8.72097 4.67519C6.12889 4.55504 3.72228 3.3847 2.09006 1.45788C1.23685 2.86851 1.67273 4.67074 3.08701 5.57407C2.57694 5.56072 2.07615 5.42723 1.62636 5.18693C1.62636 5.20028 1.62636 5.21363 1.62636 5.22698C1.62636 6.69546 2.70678 7.95924 4.20453 8.24849C3.73156 8.37309 3.2354 8.39088 2.75315 8.30189C3.17512 9.55677 4.38074 10.4201 5.75329 10.4423C4.61722 11.3011 3.20758 11.7684 1.76083 11.7639C1.5058 11.7639 1.25076 11.7506 0.995728 11.7194C2.47029 12.6272 4.18135 13.1078 5.92486 13.1078Z" fill="#818180"/>
</svg>
