<svg width="16" height="18" viewBox="0 0 16 18" fill="none" xmlns="http://www.w3.org/2000/svg">
<path d="M1.729 0H2.96708L3.76465 3.04821H3.84348L4.59931 0H5.84666L4.41846 4.46329V7.62719H3.18966V4.60569L1.729 0Z" fill="#818180"/>
<path d="M5.79101 3.28854C5.79101 2.85244 5.93939 2.50535 6.23152 2.24725C6.52366 1.98916 6.9178 1.86011 7.41396 1.86011C7.86375 1.86011 8.23471 1.99806 8.5222 2.2695C8.80969 2.54095 8.95344 2.89249 8.95344 3.31969V6.2255C8.95344 6.70609 8.8097 7.08433 8.53148 7.36023C8.24862 7.63613 7.85911 7.76962 7.36295 7.76962C6.88534 7.76962 6.50511 7.62723 6.21761 7.34688C5.93012 7.06208 5.78638 6.68384 5.78638 6.2077V3.28854H5.79101ZM6.91316 6.31005C6.91316 6.46579 6.95026 6.58594 7.02909 6.67049C7.10792 6.75504 7.21921 6.79509 7.36295 6.79509C7.51134 6.79509 7.62726 6.75059 7.71536 6.66604C7.80346 6.58149 7.8452 6.46134 7.8452 6.31005V3.24404C7.8452 3.11944 7.79883 3.02154 7.71073 2.94589C7.62262 2.87024 7.5067 2.83019 7.36295 2.83019C7.22848 2.83019 7.12183 2.87024 7.03836 2.94589C6.9549 3.02154 6.91316 3.11944 6.91316 3.24404V6.31005Z" fill="#818180"/>
<path d="M12.9923 2.00244V7.62716H11.9026V7.00417C11.7032 7.23112 11.4945 7.40912 11.2766 7.52926C11.0587 7.64941 10.85 7.70726 10.646 7.70726C10.3956 7.70726 10.2055 7.62271 10.0756 7.45807C9.94578 7.28897 9.8855 7.03977 9.8855 6.70603V2.00244H10.9752V6.31443C10.9752 6.44793 10.9984 6.54583 11.0448 6.60368C11.0911 6.66153 11.1653 6.69268 11.2673 6.69268C11.3462 6.69268 11.4482 6.65263 11.5734 6.57253C11.6939 6.49243 11.8099 6.39453 11.9119 6.26993V2.00244H12.9923Z" fill="#818180"/>
<path d="M12.8207 12.5489C12.7604 12.4644 12.663 12.4243 12.5285 12.4243C12.3894 12.4243 12.2874 12.4644 12.2271 12.5489C12.1669 12.6335 12.1344 12.767 12.1344 12.9583V13.3544H12.9134V12.9583C12.9134 12.7714 12.8856 12.6335 12.8207 12.5489Z" fill="#818180"/>
<path d="M14.9305 10.6844C14.9305 9.58523 13.9892 8.69079 12.83 8.69079C11.1746 8.62404 9.48205 8.59289 7.75245 8.59734C6.02749 8.59289 4.33035 8.62404 2.67494 8.69079C1.51569 8.69079 0.574377 9.58523 0.574377 10.6844C0.504822 11.5566 0.47236 12.4287 0.476997 13.2965C0.47236 14.1687 0.504822 15.0409 0.574377 15.9086C0.574377 17.0077 1.51569 17.9022 2.67494 17.9022C4.33035 17.9689 6.02285 18.0001 7.75245 17.9956C9.48205 18.0001 11.1746 17.9689 12.83 17.9022C13.9892 17.9022 14.9305 17.0077 14.9305 15.9086C15.0001 15.0364 15.0325 14.1642 15.0279 13.2965C15.0279 12.4287 15.0001 11.5566 14.9305 10.6844ZM3.62552 16.2334V16.3002H2.63321V16.2334V11.0181H1.60379V10.9514V10.1192V10.0569H4.65494V10.1237V10.9558V11.0226H3.62552V16.2334ZM7.16356 11.7434V16.2334V16.3002H6.28252V16.2334V15.7973C6.12023 15.9842 5.94866 16.1222 5.77246 16.2201C5.59625 16.318 5.42468 16.3669 5.26238 16.3669C5.05835 16.3669 4.90533 16.3002 4.80332 16.1622C4.7013 16.0287 4.6503 15.824 4.6503 15.5526V15.4858V11.7434V11.6767H5.53133V11.7434V15.1699C5.53133 15.2767 5.54988 15.3568 5.58697 15.4057C5.62407 15.4547 5.68435 15.4769 5.76781 15.4769C5.83273 15.4769 5.9162 15.4458 6.01357 15.379C6.11095 15.3167 6.20369 15.2322 6.28716 15.1343V11.7434V11.6767H7.16819V11.7434H7.16356ZM10.5625 12.8292V15.29V15.3568C10.5625 15.6816 10.4929 15.9308 10.3538 16.0999C10.2147 16.2735 10.0153 16.358 9.75564 16.358C9.58407 16.358 9.43105 16.3269 9.29193 16.2601C9.15746 16.1934 9.03226 16.091 8.91634 15.9531V16.2379V16.3046H8.02603V16.2379V10.1237V10.0569H8.91634V10.1237V12.046C9.0369 11.9081 9.1621 11.8013 9.29657 11.7301C9.43104 11.6589 9.56552 11.6233 9.70463 11.6233C9.98285 11.6233 10.1961 11.7212 10.3445 11.917C10.4929 12.1128 10.5671 12.3931 10.5671 12.7669V12.8292H10.5625ZM13.8223 12.9672V14.0619V14.1286H12.1344V14.9207C12.1344 15.161 12.1622 15.3256 12.2225 15.4191C12.2828 15.5125 12.3802 15.557 12.5193 15.557C12.6677 15.557 12.7697 15.517 12.8253 15.4413C12.8856 15.3612 12.9134 15.1877 12.9134 14.9207V14.6715V14.6048H13.8223V14.6715V14.9474V15.0142C13.8223 15.4814 13.711 15.8329 13.4884 16.0688C13.2658 16.3046 12.9366 16.4248 12.4961 16.4248C12.102 16.4248 11.7913 16.3002 11.5641 16.051C11.3368 15.8018 11.2256 15.4547 11.2256 15.0186V14.9519V12.9716V12.9049C11.2256 12.5088 11.3508 12.1884 11.6012 11.9392C11.8516 11.69 12.1715 11.5654 12.5657 11.5654C12.9691 11.5654 13.2798 11.6811 13.4977 11.9125C13.7156 12.1439 13.8223 12.4732 13.8223 12.9049V12.9672Z" fill="#818180"/>
<path d="M9.12505 15.526C9.1946 15.5571 9.26415 15.5749 9.33835 15.5749C9.445 15.5749 9.52383 15.5438 9.57484 15.477C9.62585 15.4147 9.64902 15.3079 9.64902 15.1611V12.8738C9.64902 12.718 9.61657 12.6023 9.55629 12.5222C9.49137 12.4421 9.40327 12.4021 9.2827 12.4021C9.21779 12.4021 9.15751 12.4154 9.09723 12.4466C9.03694 12.4777 8.97666 12.5222 8.91638 12.5845V15.3569C8.98594 15.4414 9.05549 15.4948 9.12505 15.526Z" fill="#818180"/>
</svg>
